<?xml version="1.0" standalone="no"?>
<!DOCTYPE svg PUBLIC "-//W3C//DTD SVG 20010904//EN"
 "http://www.w3.org/TR/2001/REC-SVG-20010904/DTD/svg10.dtd">
<svg version="1.0" xmlns="http://www.w3.org/2000/svg"
 width="750.000000pt" height="750.000000pt" viewBox="0 0 750.000000 750.000000"
 preserveAspectRatio="xMidYMid meet">

<g transform="translate(0.000000,750.000000) scale(0.100000,-0.100000)"
fill="#FFFFFF" stroke="none">
<path d="M3615 6664 c-585 -36 -1055 -190 -1520 -499 -192 -128 -335 -245
-496 -406 -161 -161 -243 -260 -354 -429 -214 -324 -340 -622 -419 -993 -53
-247 -60 -321 -61 -642 0 -258 3 -304 23 -412 107 -582 277 -968 624 -1416 55
-70 98 -132 96 -136 -2 -5 -66 -67 -143 -138 -253 -232 -350 -326 -363 -349
-36 -67 47 -136 113 -95 39 24 214 179 387 343 l137 129 98 -87 c477 -422
1084 -678 1763 -745 156 -15 509 -6 670 16 495 70 970 263 1363 556 252 188
549 518 724 804 238 389 413 939 438 1380 5 88 3 114 -9 130 -14 20 -30 20
-683 25 l-668 5 40 24 c22 14 67 46 101 72 l60 48 560 6 559 6 23 25 c29 32
28 59 -3 89 l-24 25 -600 0 c-330 0 -607 3 -615 6 -11 4 10 22 71 58 49 29
117 71 152 94 l64 42 562 0 562 0 21 23 c29 31 29 81 0 101 -20 14 -82 16
-480 16 -270 0 -458 4 -458 9 0 5 35 38 78 74 42 35 110 101 150 146 l74 81
293 0 c290 0 295 0 315 22 27 29 25 69 -3 96 -22 21 -31 22 -246 22 l-223 0
26 31 c39 46 34 103 -11 120 -16 6 -59 4 -126 -6 -132 -19 -280 -32 -442 -40
l-130 -7 86 81 c47 44 103 103 125 130 l38 51 699 0 698 0 24 25 c30 29 32 64
5 93 l-21 22 -657 1 c-361 0 -665 4 -675 7 -15 7 -11 17 35 87 l53 80 532 5
c517 5 533 6 547 25 22 28 20 71 -4 95 -20 20 -33 20 -590 20 l-571 0 -23 -23
c-12 -12 -42 -56 -66 -97 -71 -122 -169 -200 -250 -200 -54 0 -90 -29 -90 -73
0 -45 32 -67 95 -67 30 0 55 -4 55 -9 0 -5 -35 -38 -77 -73 -170 -140 -223
-164 -478 -218 -166 -35 -390 -99 -468 -134 -41 -19 338 336 607 568 244 210
314 275 321 296 14 43 -34 83 -87 73 -46 -9 -430 -323 -650 -532 -43 -40 -78
-71 -78 -69 0 20 149 323 211 429 21 37 66 103 99 148 l60 81 133 64 c158 75
229 103 404 155 123 38 368 91 414 91 l21 0 -22 -32 c-28 -43 -77 -146 -85
-180 -14 -56 53 -83 134 -55 30 11 37 20 56 77 27 81 56 138 90 179 l27 31
252 0 c268 0 280 2 307 51 17 33 -6 76 -48 90 -48 15 -646 3 -803 -17 -242
-31 -482 -100 -787 -229 -189 -79 -205 -94 -330 -297 -111 -178 -112 -180 -48
-53 30 60 55 117 55 126 0 25 -37 52 -69 51 -32 -1 -265 -109 -364 -168 -106
-65 -249 -169 -320 -234 l-68 -63 -791 -5 c-753 -5 -792 -6 -809 -23 -26 -26
-24 -71 4 -97 l23 -22 713 0 c649 0 712 -1 700 -16 -7 -8 -33 -26 -58 -39 -56
-28 -258 -162 -361 -238 -172 -129 -346 -307 -446 -458 -51 -78 -69 -97 -93
-102 -61 -12 -166 -147 -260 -334 -52 -104 -115 -277 -127 -350 -5 -34 -14
-47 -44 -67 -85 -56 -244 -273 -345 -471 -143 -279 -234 -569 -265 -845 l-11
-95 -72 -68 c-40 -38 -110 -103 -156 -145 l-83 -77 -51 55 c-27 30 -81 95
-120 145 l-69 90 177 5 c171 5 177 6 196 29 25 31 24 63 -4 89 -22 21 -31 22
-235 22 l-212 0 -34 47 c-46 64 -196 371 -196 402 0 3 148 5 328 3 l328 -4 29
24 c33 29 38 79 11 106 -15 15 -56 18 -383 22 l-367 5 -17 55 c-9 30 -20 70
-24 88 l-7 32 430 0 431 0 20 26 c26 34 27 68 1 94 -19 19 -33 20 -470 20
-248 0 -450 1 -450 3 0 1 -9 63 -20 137 -11 74 -20 154 -20 178 l0 42 704 0
c656 0 705 1 724 18 35 29 38 67 8 96 l-25 26 -711 0 -711 0 6 108 c24 438
107 775 272 1106 30 60 73 138 95 173 l40 63 505 0 505 0 29 30 c32 32 33 57
1 93 -14 16 -50 17 -484 17 -300 0 -468 4 -466 10 2 5 49 65 105 133 478 578
1108 936 1838 1043 186 28 582 25 774 -5 349 -54 615 -139 936 -300 141 -71
178 -86 217 -86 52 0 72 14 82 57 10 43 -30 78 -186 161 -300 158 -544 244
-893 311 -71 13 -173 29 -225 35 -109 12 -366 20 -455 15z m1053 -1259 c-72
-166 -118 -360 -153 -645 -5 -37 -15 -55 -57 -100 -218 -234 -307 -331 -398
-435 -58 -66 -154 -174 -215 -240 -61 -66 -153 -167 -204 -225 -52 -58 -98
-109 -104 -115 -14 -14 -1 228 18 345 24 148 76 372 110 475 34 103 136 325
149 325 2 0 0 -21 -4 -47 -8 -52 -5 -69 18 -95 37 -43 102 -4 122 73 21 86 63
180 112 257 100 154 342 364 565 492 48 28 88 50 89 50 1 0 -21 -52 -48 -115z
m1442 -646 c0 -6 -60 -70 -132 -143 -250 -251 -586 -468 -857 -555 -52 -17
-102 -38 -112 -47 -23 -20 -25 -63 -5 -90 13 -17 30 -19 171 -22 174 -4 174
-4 89 -63 -121 -83 -344 -175 -556 -228 -162 -41 -264 -54 -568 -71 -190 -11
-320 -27 -472 -58 -49 -10 -88 -15 -88 -11 0 3 56 61 124 127 114 111 133 125
235 175 61 30 190 81 286 112 96 31 186 66 200 77 43 34 29 91 -29 112 -19 7
-147 -25 -275 -69 l-74 -25 19 23 c128 145 296 326 337 363 134 121 298 203
541 273 241 70 421 94 841 111 149 7 272 14 274 16 9 9 51 3 51 -7z m-2558
-151 c-19 -48 -27 -86 -30 -158 -4 -84 -7 -97 -27 -115 -59 -51 -125 -435
-125 -734 l0 -136 -297 -303 c-212 -217 -299 -300 -304 -290 -19 34 -31 201
-26 358 3 128 10 192 31 284 43 195 105 358 175 461 l21 30 0 -31 c0 -61 75
-99 112 -56 9 9 27 60 42 112 46 165 129 314 256 456 55 61 185 184 196 184 1
0 -10 -28 -24 -62z m2980 -1093 c-1 -22 -12 -102 -23 -177 l-21 -138 -193 0
c-172 0 -195 -2 -216 -18 -31 -26 -31 -78 0 -104 21 -16 43 -18 198 -18 161 0
174 -1 170 -17 -3 -10 -15 -51 -26 -90 l-22 -73 -901 0 c-496 0 -899 2 -897 4
2 2 40 23 84 46 44 24 107 61 139 84 l59 41 504 5 505 5 20 24 c13 17 17 33
13 50 -14 58 -2 56 -425 53 -215 -1 -390 1 -389 5 0 5 27 27 60 51 l59 42 192
0 c183 0 193 1 215 22 37 34 29 79 -18 103 -22 12 -74 15 -261 14 -249 -2
-561 9 -592 21 -12 4 15 15 85 34 57 15 131 38 164 51 l60 24 730 -2 730 -2
-3 -40z m-2035 -150 c101 -13 185 -29 356 -66 31 -7 56 -17 55 -21 -6 -16
-162 -127 -264 -188 -140 -83 -266 -137 -404 -171 -71 -18 -120 -35 -127 -46
-18 -24 -16 -57 6 -84 18 -22 29 -24 148 -31 197 -11 1136 -27 1636 -27 246
-1 447 -3 447 -5 0 -9 -77 -174 -142 -303 l-72 -143 -285 0 c-279 0 -285 0
-308 -22 -27 -26 -30 -73 -6 -100 15 -16 36 -18 261 -18 l244 0 -20 -32 c-23
-35 -187 -236 -259 -316 l-48 -52 -435 -6 -435 -6 -22 -24 c-28 -31 -29 -54
-2 -88 l20 -26 345 0 c189 0 344 -3 344 -7 0 -13 -196 -156 -310 -228 -323
-203 -717 -340 -1120 -390 -162 -20 -494 -20 -664 0 -346 41 -720 157 -1036
322 -120 62 -425 258 -450 288 -11 13 153 15 1304 15 1303 0 1316 0 1336 20
25 25 26 74 2 98 -18 18 -53 19 -562 25 -299 4 -684 7 -856 7 -309 0 -415 11
-226 24 147 9 284 32 423 71 l127 35 128 -11 c158 -13 247 -6 274 24 26 27 25
72 0 97 -18 18 -34 20 -137 20 -121 0 -175 8 -250 37 -47 17 -58 33 -19 26 35
-7 181 14 302 43 89 21 128 24 276 24 191 0 208 5 208 63 0 63 -14 67 -209 67
-97 0 -192 5 -213 10 -29 9 -54 6 -135 -15 -114 -30 -296 -42 -440 -28 -101
10 -126 5 -143 -27 -19 -35 3 -69 90 -140 58 -47 76 -66 66 -72 -23 -13 -175
-46 -266 -58 -124 -17 -377 -14 -495 4 -109 18 -298 66 -357 91 l-38 15 121
113 c67 61 127 115 134 119 7 5 114 -12 236 -36 321 -63 300 -61 332 -36 19
15 27 31 27 51 0 48 -34 73 -130 93 -177 37 -300 70 -300 80 0 6 24 27 53 47
47 33 72 41 247 78 107 22 263 52 345 67 303 53 485 92 509 107 57 38 33 119
-36 125 -34 3 -528 -79 -715 -118 -51 -11 -96 -20 -99 -20 -6 0 234 256 387
413 76 77 97 92 170 123 150 63 418 122 629 138 93 7 329 -3 447 -19z m-1892
-495 c33 -170 54 -129 -176 -345 -111 -104 -218 -203 -237 -220 l-35 -29 6 56
c31 258 200 678 366 906 l46 64 6 -174 c4 -95 14 -211 24 -258z m-481 -1004
c127 -43 325 -87 454 -102 150 -16 18 -24 -373 -22 l-418 3 91 83 c51 45 98
82 104 82 7 0 71 -20 142 -44z"/>
<path d="M4133 2589 c-139 -48 -264 -69 -409 -69 -103 0 -112 -2 -132 -23 -30
-32 -28 -71 4 -96 25 -19 40 -21 204 -21 196 0 286 12 438 61 l92 29 475 0
c462 0 476 1 495 20 38 38 19 103 -33 115 -12 3 -240 6 -507 8 -267 1 -492 5
-500 8 -8 4 -66 -11 -127 -32z"/>
<path d="M5282 2254 c-15 -10 -22 -25 -22 -47 0 -38 7 -50 37 -66 24 -12 71 0
85 22 15 23 8 66 -14 87 -26 24 -56 26 -86 4z"/>
<path d="M4440 2240 c-41 -41 -10 -110 48 -110 37 0 62 28 62 68 0 56 -70 82
-110 42z"/>
<path d="M2690 1386 c-6 -8 -10 -25 -8 -38 3 -22 7 -23 109 -26 86 -2 108 0
119 13 10 12 10 21 2 40 -11 24 -15 25 -111 25 -74 0 -102 -4 -111 -14z"/>
<path d="M4642 1392 c-8 -5 -12 -22 -10 -38 3 -28 4 -29 62 -29 66 0 91 19 70
53 -12 19 -99 29 -122 14z"/>
<path d="M3700 1231 c-14 -26 -13 -64 2 -79 31 -31 98 0 98 46 0 48 -78 73
-100 33z"/>
<path d="M3721 6124 c-25 -32 -26 -52 -5 -82 33 -47 124 -16 124 43 0 61 -81
87 -119 39z"/>
<path d="M4270 6106 c-15 -19 -9 -56 11 -69 9 -5 28 -7 42 -3 31 7 46 48 27
71 -16 19 -64 19 -80 1z"/>
<path d="M2950 5850 c-29 -29 -26 -74 6 -99 26 -21 35 -21 604 -21 569 0 578
0 604 21 33 26 34 62 1 94 l-24 25 -586 0 c-572 0 -585 0 -605 -20z"/>
<path d="M2320 5750 c-11 -11 -20 -31 -20 -45 0 -31 41 -75 70 -75 28 0 70 43
70 73 0 31 -39 67 -73 67 -15 0 -36 -9 -47 -20z"/>
<path d="M2605 4765 c-32 -31 -33 -78 -3 -99 19 -13 60 -16 250 -16 221 0 228
1 248 22 26 28 26 72 0 98 -19 19 -33 20 -245 20 l-226 0 -24 -25z"/>
<path d="M1406 4738 c-23 -33 -20 -74 6 -92 48 -34 108 -7 108 48 0 41 -26 66
-68 66 -21 0 -36 -7 -46 -22z"/>
<path d="M1830 4640 c-43 -43 -12 -123 49 -123 66 0 98 76 51 123 -11 11 -33
20 -50 20 -17 0 -39 -9 -50 -20z"/>
<path d="M7030 4320 c-27 -27 -26 -75 2 -94 48 -34 118 -6 118 47 0 31 -39 67
-73 67 -15 0 -36 -9 -47 -20z"/>
<path d="M1665 4203 c-69 -6 -82 -12 -95 -44 -11 -27 -11 -33 7 -57 18 -24 27
-27 91 -30 61 -2 74 0 92 18 38 38 19 100 -35 112 -11 2 -38 3 -60 1z"/>
<path d="M1980 4203 c-51 -19 -66 -77 -30 -113 19 -19 33 -20 328 -20 l309 0
21 23 c25 27 28 65 8 93 -14 18 -30 19 -318 21 -167 1 -310 -1 -318 -4z"/>
<path d="M1087 4152 c-34 -37 -15 -82 33 -82 34 0 50 17 50 52 0 45 -53 64
-83 30z"/>
</g>
</svg>
