<?xml version="1.0" standalone="no"?>
<!DOCTYPE svg PUBLIC "-//W3C//DTD SVG 20010904//EN"
 "http://www.w3.org/TR/2001/REC-SVG-20010904/DTD/svg10.dtd">
<svg version="1.0" xmlns="http://www.w3.org/2000/svg"
 width="626.000000pt" height="626.000000pt" viewBox="0 0 626.000000 626.000000"
 preserveAspectRatio="xMidYMid meet">

<g transform="translate(0.000000,626.000000) scale(0.100000,-0.100000)"
fill="#000000" stroke="none">
<path d="M2865 5560 c-226 -29 -572 -118 -726 -186 -121 -54 -315 -160 -414
-227 -227 -153 -493 -414 -633 -619 -18 -26 -32 -49 -32 -52 0 -3 895 -6 1989
-6 2186 0 2029 -5 1996 60 -28 54 -208 261 -326 375 -106 102 -313 270 -377
305 -119 67 -250 134 -319 165 -154 67 -411 138 -618 171 -110 18 -445 26
-540 14z"/>
<path d="M5779 4926 c-87 -66 -304 -324 -428 -508 -85 -127 -136 -243 -238
-548 -103 -308 -138 -391 -256 -606 -82 -148 -254 -371 -402 -519 -130 -130
-348 -304 -540 -432 -173 -114 -218 -139 -438 -242 -311 -144 -776 -292 -1057
-335 -52 -8 -174 -27 -270 -41 -189 -29 -240 -44 -240 -73 0 -18 155 -176 240
-244 58 -46 252 -169 333 -209 103 -53 350 -129 502 -156 226 -40 491 -36 730
13 88 18 294 85 403 131 88 37 326 172 405 230 83 61 67 66 -117 35 -128 -21
-163 -23 -376 -19 -205 4 -251 8 -359 31 -275 59 -608 206 -652 287 -22 42 20
109 68 109 13 0 58 -17 101 -39 199 -100 331 -139 563 -167 274 -33 580 6 918
116 140 46 345 158 476 261 65 51 234 219 286 284 104 131 247 382 256 453 8
60 -10 56 -107 -28 -101 -87 -167 -132 -290 -198 -250 -134 -469 -184 -821
-186 -201 -1 -211 1 -231 53 -13 35 -1 88 21 101 10 5 86 12 168 15 435 15
810 157 1090 413 62 57 131 127 152 155 21 29 56 73 78 99 119 144 228 431
269 710 21 143 15 494 -10 633 -23 128 -85 374 -102 407 -15 28 -42 48 -67 48
-8 0 -34 -15 -58 -34z"/>
<path d="M899 4208 c-47 -73 -112 -205 -138 -281 -10 -28 -32 -91 -49 -139
-44 -121 -74 -244 -76 -303 l-1 -50 1300 -2 1300 -2 91 59 c251 163 597 300
756 300 54 0 60 2 130 59 84 68 226 158 366 233 53 28 99 55 102 59 3 4 58 32
123 63 64 30 117 57 117 60 0 3 -896 6 -1990 6 l-1990 0 -41 -62z"/>
<path d="M4810 3997 c-121 -55 -388 -218 -494 -301 -112 -88 -241 -227 -305
-330 -106 -171 -152 -329 -154 -534 -2 -122 -2 -124 -30 -148 -49 -42 -106
-24 -133 42 -29 70 -14 339 27 492 22 79 74 211 89 226 6 6 10 23 10 38 0 25
-3 28 -34 28 -85 0 -308 -134 -448 -269 -238 -228 -348 -455 -365 -755 -6
-106 -6 -107 -41 -137 -39 -34 -71 -34 -107 2 -19 18 -20 32 -19 202 1 173 2
186 28 257 38 103 40 114 22 129 -31 26 -266 -47 -479 -147 -305 -144 -558
-408 -677 -706 -33 -83 -48 -160 -34 -169 5 -2 74 4 154 14 423 54 624 91 910
165 96 25 193 50 215 54 45 10 199 63 260 90 22 10 90 39 150 65 137 59 234
109 350 179 178 109 235 148 346 236 279 222 503 480 656 755 95 171 118 221
183 398 41 110 49 142 39 153 -6 8 -14 14 -18 14 -3 0 -49 -20 -101 -43z"/>
<path d="M609 3214 c-28 -33 -23 -320 7 -463 l5 -24 664 5 664 6 58 39 c308
210 521 303 933 406 34 8 55 19 55 28 0 12 -170 14 -1186 17 -1094 2 -1188 1
-1200 -14z"/>
<path d="M685 2506 c-15 -22 -13 -31 26 -142 74 -211 88 -232 144 -218 14 3
31 1 39 -5 11 -10 18 -7 34 9 17 19 20 19 26 4 4 -11 13 -14 28 -11 12 4 28 1
35 -5 10 -8 17 -8 25 0 17 17 26 15 33 -8 3 -11 11 -20 16 -20 6 0 8 9 4 19
-5 18 -3 19 26 11 18 -6 35 -6 38 -2 4 4 27 8 52 9 43 1 46 -1 42 -21 -5 -19
-4 -19 8 -5 16 19 69 34 69 19 0 -6 9 -6 23 -1 14 6 30 5 41 -1 12 -7 26 -7
41 0 20 9 24 7 30 -11 5 -17 8 -18 12 -7 3 8 12 18 19 23 7 4 34 46 60 95 46
86 107 180 151 235 47 58 59 57 -498 57 l-509 0 -15 -24z"/>
<path d="M1605 1845 c-237 -37 -544 -106 -694 -155 -108 -35 -388 -148 -475
-191 -195 -97 -257 -152 -242 -213 20 -78 81 -85 199 -22 45 25 136 68 202 96
66 29 144 63 173 76 169 77 541 171 962 244 35 7 76 18 91 26 32 16 45 58 30
97 -10 26 -65 68 -86 66 -5 -1 -77 -12 -160 -24z"/>
</g>
</svg>
